# xmcd
#
# Track frame offsets:
#	150
#	14474
#	27429
#	39401
#	58319
#	72723
#	87239
#	102490
#	118645
#	131758
#	146121
#
# Disc length: 2166 seconds
#
# Revision: 0
# Processed by: cddbd v1.5.2PL0 Copyright (c) Steve Scherf et al.
# Submitted via: FairStars CD Ripper 1.90
#
DISCID=a808740b
DTITLE=Maggie Baugh - Catch Me
DYEAR=2017
DGENRE=Country
TTITLE0=Catch Me
TTITLE1=We Burn
TTITLE2=Brick Wall
TTITLE3=Ain't Another Love Song
TTITLE4=Boy Crazy
TTITLE5=Crushed
TTITLE6=First
TTITLE7=Growing Up
TTITLE8=Don't Know It Yet
TTITLE9=Bad Idea
TTITLE10=Into You
EXTD=
EXTT0=
EXTT1=
EXTT2=
EXTT3=
EXTT4=
EXTT5=
EXTT6=
EXTT7=
EXTT8=
EXTT9=
EXTT10=
PLAYORDER=
